<svg width="40" height="41" viewBox="0 0 40 41" fill="none" xmlns="http://www.w3.org/2000/svg">
<path fill-rule="evenodd" clip-rule="evenodd" d="M38.8537 1.41649C39.9062 2.45649 39.9163 4.15277 38.8763 5.20525L20.0047 24.3034C18.9647 25.3559 17.2684 25.366 16.2159 24.326C15.1635 23.286 15.1534 21.5897 16.1933 20.5372L35.065 1.43909C36.105 0.386615 37.8013 0.376495 38.8537 1.41649Z" fill="#868686"/>
<path fill-rule="evenodd" clip-rule="evenodd" d="M23.252 2.67911C23.252 1.19948 24.4514 0 25.9311 0H37.3202C38.7998 0 39.9993 1.19948 39.9993 2.67911V13.9922C39.9993 15.4719 38.7998 16.6713 37.3202 16.6713C35.8406 16.6713 34.6411 15.4719 34.6411 13.9922V5.35821H25.9311C24.4514 5.35821 23.252 4.15874 23.252 2.67911Z" fill="#868686"/>
<path fill-rule="evenodd" clip-rule="evenodd" d="M0 7.72891C0 6.24928 1.19948 5.0498 2.67911 5.0498H18.3275C19.8072 5.0498 21.0066 6.24928 21.0066 7.72891C21.0066 9.20854 19.8072 10.408 18.3275 10.408H5.35821V35.1732H30.1233L30.1227 22.204C30.1226 20.7244 31.3221 19.5248 32.8017 19.5248C34.2813 19.5247 35.4809 20.7241 35.4809 22.2038L35.4816 37.8522C35.4816 38.5627 35.1994 39.2442 34.6969 39.7467C34.1945 40.2491 33.5131 40.5314 32.8025 40.5314H2.67911C1.19948 40.5314 0 39.3319 0 37.8523V7.72891Z" fill="#868686"/>
</svg>
