<svg width="54" height="54" viewBox="0 0 54 54" fill="none" xmlns="http://www.w3.org/2000/svg">
<path d="M48.7983 3.22688C49.71 3.86271 50.1779 6.71348 49.7055 12.9654C49.5252 15.2365 49.2218 17.4963 48.7968 19.7346C50.9127 23.4221 51.4961 27.6031 50.5468 32.2803C49.7055 36.4208 46.9507 40.2898 42.5314 43.9848C38.1105 47.6814 32.9849 51 26.9474 51C20.9085 51 14.7196 47.5164 10.9616 43.9848C7.20205 40.4547 4.83716 37.1241 3.74394 33.4171C2.41979 28.9227 2.86367 24.3624 5.0726 19.7346C4.60322 17.2542 4.3078 14.9988 4.18783 12.9654C3.74394 5.4763 4.02887 4.02017 5.0726 3.22688C6.49273 2.14716 11.0126 4.92144 18.6321 11.5452C22.1217 10.9139 24.9095 10.599 26.9939 10.599C29.0784 10.599 31.8347 10.9139 35.2613 11.5437C42.9303 5.0564 47.4441 2.28362 48.7983 3.22688Z" stroke="#868686" stroke-width="5"/>
<path d="M26.8903 40.2366C25.0398 40.2725 22.5474 37.7637 22.5474 36.738C22.5474 35.7107 25.4687 35.4063 27.1017 35.4063C28.7363 35.4063 31.4461 35.5803 31.4461 36.738C31.4461 37.8942 28.7408 40.2006 26.8903 40.2366ZM14.9729 30.5131C17.6497 31.5553 20.3565 30.9855 21.0163 29.2384C21.6761 27.4914 20.0416 25.2284 17.3648 24.1847C14.6895 23.1425 12.4085 23.0225 11.7472 24.7696C11.0874 26.5166 12.2976 29.4693 14.9729 30.5131ZM38.9292 30.2117C36.3993 31.4338 33.643 30.9855 32.9832 29.2369C32.3234 27.4914 33.958 25.2284 36.6333 24.1847C39.3101 23.1425 41.3225 23.0225 41.9824 24.7696C42.6422 26.5166 41.459 28.988 38.9292 30.2117Z" fill="#868686"/>
</svg>
